<mxfile host="app.diagrams.net" modified="2024-05-30T14:55:38.368Z" agent="Mozilla/5.0 (Windows NT 10.0; Win64; x64; rv:126.0) Gecko/20100101 Firefox/126.0" etag="V_zB17W9DRIIDE2MZYcF" version="24.4.10" type="github">
  <diagram name="Page-1" id="br9i2XQCMFadmgih-ce4">
    <mxGraphModel dx="1763" dy="484" grid="1" gridSize="10" guides="1" tooltips="1" connect="1" arrows="1" fold="1" page="1" pageScale="1" pageWidth="850" pageHeight="1100" math="0" shadow="0">
      <root>
        <mxCell id="0" />
        <mxCell id="1" parent="0" />
        <mxCell id="264VTFjCGmdhycWwTqiz-26" value="" style="group" vertex="1" connectable="0" parent="1">
          <mxGeometry x="609" y="540" width="226" height="200" as="geometry" />
        </mxCell>
        <mxCell id="264VTFjCGmdhycWwTqiz-27" value="" style="group" vertex="1" connectable="0" parent="264VTFjCGmdhycWwTqiz-26">
          <mxGeometry y="-10" width="228" height="208.75" as="geometry" />
        </mxCell>
        <mxCell id="264VTFjCGmdhycWwTqiz-25" value="" style="rounded=0;whiteSpace=wrap;html=1;fillColor=#dae8fc;strokeColor=none;" vertex="1" parent="264VTFjCGmdhycWwTqiz-27">
          <mxGeometry width="228" height="208.75" as="geometry" />
        </mxCell>
        <mxCell id="264VTFjCGmdhycWwTqiz-19" value="&lt;span&gt;&lt;strong&gt;&lt;span&gt;Programming languages&lt;/span&gt;&lt;/strong&gt;&lt;/span&gt;" style="whiteSpace=wrap;html=1;rounded=0;" vertex="1" parent="264VTFjCGmdhycWwTqiz-27">
          <mxGeometry x="60" y="168.75" width="150" height="30" as="geometry" />
        </mxCell>
        <mxCell id="264VTFjCGmdhycWwTqiz-20" value="&lt;span&gt;&lt;strong&gt;&lt;span&gt;Security information and event management (SIEM) tools&lt;/span&gt;&lt;/strong&gt;&lt;/span&gt;" style="whiteSpace=wrap;html=1;rounded=0;" vertex="1" parent="264VTFjCGmdhycWwTqiz-27">
          <mxGeometry x="10" y="128.75" width="200" height="30" as="geometry" />
        </mxCell>
        <mxCell id="264VTFjCGmdhycWwTqiz-21" value="&lt;span&gt;&lt;strong&gt;&lt;span&gt;Intrusion detection systems (IDSs)&lt;/span&gt;&lt;/strong&gt;&lt;/span&gt;" style="whiteSpace=wrap;html=1;rounded=0;" vertex="1" parent="264VTFjCGmdhycWwTqiz-27">
          <mxGeometry x="60" y="88.75" width="150" height="30" as="geometry" />
        </mxCell>
        <mxCell id="264VTFjCGmdhycWwTqiz-22" value="&lt;span&gt;&lt;strong&gt;&lt;span&gt;Threat landscape knowledge&lt;/span&gt;&lt;/strong&gt;&lt;/span&gt;" style="whiteSpace=wrap;html=1;rounded=0;" vertex="1" parent="264VTFjCGmdhycWwTqiz-27">
          <mxGeometry x="60" y="48.75" width="150" height="30" as="geometry" />
        </mxCell>
        <mxCell id="264VTFjCGmdhycWwTqiz-23" value="&lt;span&gt;&lt;strong&gt;&lt;span&gt;Incident response&lt;/span&gt;&lt;/strong&gt;&lt;/span&gt;" style="whiteSpace=wrap;html=1;rounded=0;" vertex="1" parent="264VTFjCGmdhycWwTqiz-27">
          <mxGeometry x="60" y="8.75" width="150" height="30" as="geometry" />
        </mxCell>
        <mxCell id="264VTFjCGmdhycWwTqiz-4" value="" style="edgeStyle=orthogonalEdgeStyle;rounded=0;orthogonalLoop=1;jettySize=auto;html=1;" edge="1" parent="1" source="264VTFjCGmdhycWwTqiz-1" target="264VTFjCGmdhycWwTqiz-3">
          <mxGeometry relative="1" as="geometry" />
        </mxCell>
        <mxCell id="264VTFjCGmdhycWwTqiz-18" style="edgeStyle=orthogonalEdgeStyle;rounded=0;orthogonalLoop=1;jettySize=auto;html=1;entryX=0;entryY=0.5;entryDx=0;entryDy=0;" edge="1" parent="1" source="264VTFjCGmdhycWwTqiz-1" target="264VTFjCGmdhycWwTqiz-17">
          <mxGeometry relative="1" as="geometry" />
        </mxCell>
        <mxCell id="264VTFjCGmdhycWwTqiz-29" style="edgeStyle=orthogonalEdgeStyle;rounded=0;orthogonalLoop=1;jettySize=auto;html=1;entryX=0.5;entryY=1;entryDx=0;entryDy=0;" edge="1" parent="1" source="264VTFjCGmdhycWwTqiz-1" target="264VTFjCGmdhycWwTqiz-28">
          <mxGeometry relative="1" as="geometry" />
        </mxCell>
        <mxCell id="264VTFjCGmdhycWwTqiz-1" value="Core Skill" style="rounded=1;whiteSpace=wrap;html=1;fontStyle=1;fillColor=#fa6800;fontColor=#000000;strokeColor=#C73500;" vertex="1" parent="1">
          <mxGeometry x="450" y="830" width="120" height="40" as="geometry" />
        </mxCell>
        <mxCell id="264VTFjCGmdhycWwTqiz-14" style="edgeStyle=orthogonalEdgeStyle;rounded=0;orthogonalLoop=1;jettySize=auto;html=1;entryX=0.5;entryY=0;entryDx=0;entryDy=0;curved=1;strokeColor=#66B2FF;dashed=1;dashPattern=8 8;" edge="1" parent="1" source="264VTFjCGmdhycWwTqiz-3" target="264VTFjCGmdhycWwTqiz-11">
          <mxGeometry relative="1" as="geometry" />
        </mxCell>
        <mxCell id="264VTFjCGmdhycWwTqiz-3" value="Transferable skills" style="rounded=0;whiteSpace=wrap;html=1;" vertex="1" parent="1">
          <mxGeometry x="650" y="860" width="120" height="40" as="geometry" />
        </mxCell>
        <mxCell id="264VTFjCGmdhycWwTqiz-15" value="" style="group" vertex="1" connectable="0" parent="1">
          <mxGeometry x="577" y="950" width="266" height="127.5" as="geometry" />
        </mxCell>
        <mxCell id="264VTFjCGmdhycWwTqiz-11" value="" style="rounded=0;whiteSpace=wrap;html=1;fillColor=#dae8fc;strokeColor=none;" vertex="1" parent="264VTFjCGmdhycWwTqiz-15">
          <mxGeometry width="266" height="127.5" as="geometry" />
        </mxCell>
        <mxCell id="264VTFjCGmdhycWwTqiz-12" value="" style="group" vertex="1" connectable="0" parent="264VTFjCGmdhycWwTqiz-15">
          <mxGeometry x="8" y="8.75" width="250" height="110" as="geometry" />
        </mxCell>
        <mxCell id="264VTFjCGmdhycWwTqiz-5" value="&lt;span&gt;&lt;strong&gt;&lt;span&gt;Communication&lt;/span&gt;&lt;/strong&gt;&lt;/span&gt;" style="whiteSpace=wrap;html=1;rounded=0;" vertex="1" parent="264VTFjCGmdhycWwTqiz-12">
          <mxGeometry width="120" height="30" as="geometry" />
        </mxCell>
        <mxCell id="264VTFjCGmdhycWwTqiz-7" value="&lt;span&gt;&lt;strong&gt;&lt;span&gt;Problem-solving&lt;/span&gt;&lt;/strong&gt;&lt;/span&gt;" style="whiteSpace=wrap;html=1;rounded=0;" vertex="1" parent="264VTFjCGmdhycWwTqiz-12">
          <mxGeometry y="40" width="120" height="30" as="geometry" />
        </mxCell>
        <mxCell id="264VTFjCGmdhycWwTqiz-8" value="&lt;span&gt;&lt;strong&gt;&lt;span&gt;Time management&lt;/span&gt;&lt;/strong&gt;&lt;/span&gt;" style="whiteSpace=wrap;html=1;rounded=0;" vertex="1" parent="264VTFjCGmdhycWwTqiz-12">
          <mxGeometry x="130" width="120" height="30" as="geometry" />
        </mxCell>
        <mxCell id="264VTFjCGmdhycWwTqiz-9" value="&lt;span&gt;&lt;strong&gt;&lt;span&gt;Growth mindset&lt;/span&gt;&lt;/strong&gt;&lt;/span&gt;" style="whiteSpace=wrap;html=1;rounded=0;" vertex="1" parent="264VTFjCGmdhycWwTqiz-12">
          <mxGeometry x="130" y="40" width="120" height="30" as="geometry" />
        </mxCell>
        <mxCell id="264VTFjCGmdhycWwTqiz-10" value="&lt;span&gt;&lt;strong&gt;&lt;span&gt;Diverse perspectives&lt;/span&gt;&lt;/strong&gt;&lt;/span&gt;" style="whiteSpace=wrap;html=1;rounded=0;" vertex="1" parent="264VTFjCGmdhycWwTqiz-12">
          <mxGeometry y="80" width="250" height="30" as="geometry" />
        </mxCell>
        <mxCell id="264VTFjCGmdhycWwTqiz-17" value="Technical skills" style="rounded=0;whiteSpace=wrap;html=1;" vertex="1" parent="1">
          <mxGeometry x="650" y="800" width="120" height="40" as="geometry" />
        </mxCell>
        <mxCell id="264VTFjCGmdhycWwTqiz-24" style="edgeStyle=orthogonalEdgeStyle;rounded=0;orthogonalLoop=1;jettySize=auto;html=1;entryX=0.5;entryY=1;entryDx=0;entryDy=0;curved=1;strokeColor=#66B2FF;dashed=1;dashPattern=8 8;exitX=0.5;exitY=0;exitDx=0;exitDy=0;" edge="1" parent="1" source="264VTFjCGmdhycWwTqiz-17" target="264VTFjCGmdhycWwTqiz-25">
          <mxGeometry relative="1" as="geometry">
            <mxPoint x="720" y="910" as="sourcePoint" />
            <mxPoint x="720" y="960" as="targetPoint" />
          </mxGeometry>
        </mxCell>
        <mxCell id="264VTFjCGmdhycWwTqiz-28" value="CompTIA Security+" style="rounded=0;whiteSpace=wrap;html=1;" vertex="1" parent="1">
          <mxGeometry x="440" y="720" width="120" height="40" as="geometry" />
        </mxCell>
        <mxCell id="264VTFjCGmdhycWwTqiz-34" value="" style="edgeStyle=orthogonalEdgeStyle;rounded=0;orthogonalLoop=1;jettySize=auto;html=1;entryX=0;entryY=0.5;entryDx=0;entryDy=0;exitX=0;exitY=0.5;exitDx=0;exitDy=0;" edge="1" parent="1" source="264VTFjCGmdhycWwTqiz-31" target="264VTFjCGmdhycWwTqiz-35">
          <mxGeometry relative="1" as="geometry">
            <mxPoint x="-50" y="660" as="targetPoint" />
          </mxGeometry>
        </mxCell>
        <mxCell id="264VTFjCGmdhycWwTqiz-47" style="edgeStyle=orthogonalEdgeStyle;rounded=0;orthogonalLoop=1;jettySize=auto;html=1;exitX=0;exitY=0.5;exitDx=0;exitDy=0;entryX=0;entryY=0.5;entryDx=0;entryDy=0;" edge="1" parent="1" source="264VTFjCGmdhycWwTqiz-31" target="264VTFjCGmdhycWwTqiz-36">
          <mxGeometry relative="1" as="geometry" />
        </mxCell>
        <mxCell id="264VTFjCGmdhycWwTqiz-48" style="edgeStyle=orthogonalEdgeStyle;rounded=0;orthogonalLoop=1;jettySize=auto;html=1;exitX=0;exitY=0.5;exitDx=0;exitDy=0;entryX=0;entryY=0.5;entryDx=0;entryDy=0;" edge="1" parent="1" source="264VTFjCGmdhycWwTqiz-31" target="264VTFjCGmdhycWwTqiz-38">
          <mxGeometry relative="1" as="geometry" />
        </mxCell>
        <mxCell id="264VTFjCGmdhycWwTqiz-49" style="edgeStyle=orthogonalEdgeStyle;rounded=0;orthogonalLoop=1;jettySize=auto;html=1;exitX=0;exitY=0.5;exitDx=0;exitDy=0;entryX=0;entryY=0.5;entryDx=0;entryDy=0;" edge="1" parent="1" source="264VTFjCGmdhycWwTqiz-31" target="264VTFjCGmdhycWwTqiz-40">
          <mxGeometry relative="1" as="geometry" />
        </mxCell>
        <mxCell id="264VTFjCGmdhycWwTqiz-50" style="edgeStyle=orthogonalEdgeStyle;rounded=0;orthogonalLoop=1;jettySize=auto;html=1;exitX=0;exitY=0.5;exitDx=0;exitDy=0;entryX=0;entryY=0.5;entryDx=0;entryDy=0;" edge="1" parent="1" source="264VTFjCGmdhycWwTqiz-31" target="264VTFjCGmdhycWwTqiz-43">
          <mxGeometry relative="1" as="geometry" />
        </mxCell>
        <mxCell id="264VTFjCGmdhycWwTqiz-51" style="edgeStyle=orthogonalEdgeStyle;rounded=0;orthogonalLoop=1;jettySize=auto;html=1;exitX=0;exitY=0.5;exitDx=0;exitDy=0;entryX=0;entryY=0.5;entryDx=0;entryDy=0;" edge="1" parent="1" source="264VTFjCGmdhycWwTqiz-31" target="264VTFjCGmdhycWwTqiz-45">
          <mxGeometry relative="1" as="geometry" />
        </mxCell>
        <mxCell id="264VTFjCGmdhycWwTqiz-31" value="Keep organizations secure" style="rounded=1;whiteSpace=wrap;html=1;fontStyle=1;fillColor=#fa6800;fontColor=#000000;strokeColor=#C73500;" vertex="1" parent="1">
          <mxGeometry x="-30" y="720" width="150" height="40" as="geometry" />
        </mxCell>
        <mxCell id="264VTFjCGmdhycWwTqiz-35" value="&lt;h6 style=&quot;font-size: 9px;&quot;&gt;&lt;font style=&quot;font-size: 12px;&quot;&gt;&lt;span style=&quot;font-weight: normal;&quot;&gt;Analytical thinking&lt;/span&gt;&lt;/font&gt;&lt;/h6&gt;" style="rounded=0;whiteSpace=wrap;html=1;fontStyle=1" vertex="1" parent="1">
          <mxGeometry x="-30" y="660" width="120" height="30" as="geometry" />
        </mxCell>
        <mxCell id="264VTFjCGmdhycWwTqiz-36" value="Collaboration" style="rounded=0;whiteSpace=wrap;html=1;" vertex="1" parent="1">
          <mxGeometry x="-30" y="625" width="120" height="30" as="geometry" />
        </mxCell>
        <mxCell id="264VTFjCGmdhycWwTqiz-38" value="Malware prevention" style="rounded=0;whiteSpace=wrap;html=1;" vertex="1" parent="1">
          <mxGeometry x="-30" y="590" width="120" height="30" as="geometry" />
        </mxCell>
        <mxCell id="264VTFjCGmdhycWwTqiz-40" value="Communication" style="rounded=0;whiteSpace=wrap;html=1;" vertex="1" parent="1">
          <mxGeometry x="-30" y="550" width="120" height="30" as="geometry" />
        </mxCell>
        <mxCell id="264VTFjCGmdhycWwTqiz-43" value="Understanding programming languages" style="rounded=0;whiteSpace=wrap;html=1;" vertex="1" parent="1">
          <mxGeometry x="-30" y="510" width="160" height="30" as="geometry" />
        </mxCell>
        <mxCell id="264VTFjCGmdhycWwTqiz-45" value="Using SIEM tools" style="rounded=0;whiteSpace=wrap;html=1;" vertex="1" parent="1">
          <mxGeometry x="-30" y="470" width="120" height="30" as="geometry" />
        </mxCell>
        <mxCell id="264VTFjCGmdhycWwTqiz-55" style="edgeStyle=orthogonalEdgeStyle;rounded=0;orthogonalLoop=1;jettySize=auto;html=1;entryX=0;entryY=0.5;entryDx=0;entryDy=0;curved=1;" edge="1" parent="1" source="264VTFjCGmdhycWwTqiz-52" target="264VTFjCGmdhycWwTqiz-53">
          <mxGeometry relative="1" as="geometry" />
        </mxCell>
        <mxCell id="264VTFjCGmdhycWwTqiz-56" style="edgeStyle=orthogonalEdgeStyle;rounded=0;orthogonalLoop=1;jettySize=auto;html=1;entryX=0;entryY=0.5;entryDx=0;entryDy=0;curved=1;" edge="1" parent="1" source="264VTFjCGmdhycWwTqiz-52" target="264VTFjCGmdhycWwTqiz-54">
          <mxGeometry relative="1" as="geometry" />
        </mxCell>
        <mxCell id="264VTFjCGmdhycWwTqiz-57" style="edgeStyle=orthogonalEdgeStyle;rounded=0;orthogonalLoop=1;jettySize=auto;html=1;entryX=0;entryY=0.5;entryDx=0;entryDy=0;curved=1;exitX=0.5;exitY=1;exitDx=0;exitDy=0;" edge="1" parent="1" source="264VTFjCGmdhycWwTqiz-52" target="264VTFjCGmdhycWwTqiz-1">
          <mxGeometry relative="1" as="geometry" />
        </mxCell>
        <mxCell id="264VTFjCGmdhycWwTqiz-52" value="Cybersecurity" style="ellipse;whiteSpace=wrap;html=1;fillColor=#f8cecc;strokeColor=#b85450;" vertex="1" parent="1">
          <mxGeometry x="315" y="320" width="120" height="80" as="geometry" />
        </mxCell>
        <mxCell id="264VTFjCGmdhycWwTqiz-53" value="Definition" style="rounded=1;whiteSpace=wrap;html=1;fontStyle=1;fillColor=#fa6800;fontColor=#000000;strokeColor=#C73500;" vertex="1" parent="1">
          <mxGeometry x="530" y="310" width="150" height="40" as="geometry" />
        </mxCell>
        <mxCell id="264VTFjCGmdhycWwTqiz-54" value="Job responsibility" style="rounded=1;whiteSpace=wrap;html=1;fontStyle=1;fillColor=#fa6800;fontColor=#000000;strokeColor=#C73500;" vertex="1" parent="1">
          <mxGeometry x="520" y="410" width="150" height="40" as="geometry" />
        </mxCell>
      </root>
    </mxGraphModel>
  </diagram>
</mxfile>
